<mxfile host="app.diagrams.net" modified="2022-06-15T18:04:55.111Z" agent="5.0 (Windows NT 10.0; Win64; x64) AppleWebKit/537.36 (KHTML, like Gecko) Chrome/102.0.0.0 Safari/537.36" etag="dKL7fhdM5ekTkml4Sx43" version="20.0.1" type="github">
  <diagram id="R2lEEEUBdFMjLlhIrx00" name="Page-1">
    <mxGraphModel dx="1038" dy="547" grid="1" gridSize="10" guides="1" tooltips="1" connect="1" arrows="1" fold="1" page="1" pageScale="1" pageWidth="850" pageHeight="1100" math="0" shadow="0" extFonts="Permanent Marker^https://fonts.googleapis.com/css?family=Permanent+Marker">
      <root>
        <mxCell id="0" />
        <mxCell id="1" parent="0" />
        <mxCell id="FTFGuDRBSK8k1Kst_V28-25" value="" style="edgeStyle=orthogonalEdgeStyle;rounded=0;orthogonalLoop=1;jettySize=auto;html=1;" edge="1" parent="1" source="FTFGuDRBSK8k1Kst_V28-2" target="FTFGuDRBSK8k1Kst_V28-24">
          <mxGeometry relative="1" as="geometry" />
        </mxCell>
        <mxCell id="FTFGuDRBSK8k1Kst_V28-2" value="Customer" style="whiteSpace=wrap;html=1;align=center;" vertex="1" parent="1">
          <mxGeometry x="60" y="140" width="100" height="40" as="geometry" />
        </mxCell>
        <mxCell id="FTFGuDRBSK8k1Kst_V28-16" value="" style="edgeStyle=orthogonalEdgeStyle;rounded=0;orthogonalLoop=1;jettySize=auto;html=1;" edge="1" parent="1" source="FTFGuDRBSK8k1Kst_V28-3" target="FTFGuDRBSK8k1Kst_V28-2">
          <mxGeometry relative="1" as="geometry" />
        </mxCell>
        <mxCell id="FTFGuDRBSK8k1Kst_V28-3" value="&lt;u&gt;ID&lt;/u&gt;" style="ellipse;whiteSpace=wrap;html=1;" vertex="1" parent="1">
          <mxGeometry x="10" y="30" width="70" height="30" as="geometry" />
        </mxCell>
        <mxCell id="FTFGuDRBSK8k1Kst_V28-17" value="" style="edgeStyle=orthogonalEdgeStyle;rounded=0;orthogonalLoop=1;jettySize=auto;html=1;" edge="1" parent="1" source="FTFGuDRBSK8k1Kst_V28-5" target="FTFGuDRBSK8k1Kst_V28-2">
          <mxGeometry relative="1" as="geometry" />
        </mxCell>
        <mxCell id="FTFGuDRBSK8k1Kst_V28-5" value="Name" style="ellipse;whiteSpace=wrap;html=1;" vertex="1" parent="1">
          <mxGeometry x="90" y="30" width="70" height="30" as="geometry" />
        </mxCell>
        <mxCell id="FTFGuDRBSK8k1Kst_V28-19" value="" style="edgeStyle=orthogonalEdgeStyle;rounded=0;orthogonalLoop=1;jettySize=auto;html=1;" edge="1" parent="1" source="FTFGuDRBSK8k1Kst_V28-13" target="FTFGuDRBSK8k1Kst_V28-2">
          <mxGeometry relative="1" as="geometry" />
        </mxCell>
        <mxCell id="FTFGuDRBSK8k1Kst_V28-13" value="Type" style="ellipse;whiteSpace=wrap;html=1;align=center;" vertex="1" parent="1">
          <mxGeometry x="160" y="30" width="80" height="40" as="geometry" />
        </mxCell>
        <mxCell id="FTFGuDRBSK8k1Kst_V28-20" value="" style="edgeStyle=orthogonalEdgeStyle;rounded=0;orthogonalLoop=1;jettySize=auto;html=1;" edge="1" parent="1" source="FTFGuDRBSK8k1Kst_V28-14" target="FTFGuDRBSK8k1Kst_V28-2">
          <mxGeometry relative="1" as="geometry">
            <Array as="points">
              <mxPoint x="300" y="110" />
              <mxPoint x="110" y="110" />
            </Array>
          </mxGeometry>
        </mxCell>
        <mxCell id="FTFGuDRBSK8k1Kst_V28-14" value="mobile number" style="ellipse;whiteSpace=wrap;html=1;align=center;" vertex="1" parent="1">
          <mxGeometry x="250" y="20" width="100" height="40" as="geometry" />
        </mxCell>
        <mxCell id="FTFGuDRBSK8k1Kst_V28-21" value="" style="edgeStyle=orthogonalEdgeStyle;rounded=0;orthogonalLoop=1;jettySize=auto;html=1;" edge="1" parent="1" source="FTFGuDRBSK8k1Kst_V28-15" target="FTFGuDRBSK8k1Kst_V28-2">
          <mxGeometry relative="1" as="geometry" />
        </mxCell>
        <mxCell id="FTFGuDRBSK8k1Kst_V28-15" value="TaxNumber" style="ellipse;whiteSpace=wrap;html=1;align=center;" vertex="1" parent="1">
          <mxGeometry x="325" y="70" width="100" height="40" as="geometry" />
        </mxCell>
        <mxCell id="FTFGuDRBSK8k1Kst_V28-45" value="" style="edgeStyle=orthogonalEdgeStyle;rounded=0;orthogonalLoop=1;jettySize=auto;html=1;" edge="1" parent="1" source="FTFGuDRBSK8k1Kst_V28-23">
          <mxGeometry relative="1" as="geometry">
            <mxPoint x="50" y="770" as="targetPoint" />
          </mxGeometry>
        </mxCell>
        <mxCell id="FTFGuDRBSK8k1Kst_V28-46" value="" style="edgeStyle=orthogonalEdgeStyle;rounded=0;orthogonalLoop=1;jettySize=auto;html=1;" edge="1" parent="1" source="FTFGuDRBSK8k1Kst_V28-23">
          <mxGeometry relative="1" as="geometry">
            <mxPoint x="50" y="770" as="targetPoint" />
          </mxGeometry>
        </mxCell>
        <mxCell id="FTFGuDRBSK8k1Kst_V28-51" style="edgeStyle=orthogonalEdgeStyle;rounded=0;orthogonalLoop=1;jettySize=auto;html=1;entryX=0.26;entryY=0.925;entryDx=0;entryDy=0;entryPerimeter=0;" edge="1" parent="1" source="FTFGuDRBSK8k1Kst_V28-23" target="FTFGuDRBSK8k1Kst_V28-47">
          <mxGeometry relative="1" as="geometry" />
        </mxCell>
        <mxCell id="FTFGuDRBSK8k1Kst_V28-53" style="edgeStyle=orthogonalEdgeStyle;rounded=0;orthogonalLoop=1;jettySize=auto;html=1;entryX=0;entryY=0;entryDx=0;entryDy=0;" edge="1" parent="1" source="FTFGuDRBSK8k1Kst_V28-23" target="FTFGuDRBSK8k1Kst_V28-49">
          <mxGeometry relative="1" as="geometry" />
        </mxCell>
        <mxCell id="FTFGuDRBSK8k1Kst_V28-54" style="edgeStyle=orthogonalEdgeStyle;rounded=0;orthogonalLoop=1;jettySize=auto;html=1;entryX=0;entryY=0.75;entryDx=0;entryDy=0;entryPerimeter=0;" edge="1" parent="1" source="FTFGuDRBSK8k1Kst_V28-23" target="FTFGuDRBSK8k1Kst_V28-50">
          <mxGeometry relative="1" as="geometry" />
        </mxCell>
        <mxCell id="FTFGuDRBSK8k1Kst_V28-23" value="Employee" style="whiteSpace=wrap;html=1;align=center;" vertex="1" parent="1">
          <mxGeometry x="50" y="810" width="100" height="40" as="geometry" />
        </mxCell>
        <mxCell id="FTFGuDRBSK8k1Kst_V28-27" value="" style="edgeStyle=orthogonalEdgeStyle;rounded=0;orthogonalLoop=1;jettySize=auto;html=1;" edge="1" parent="1" source="FTFGuDRBSK8k1Kst_V28-24" target="FTFGuDRBSK8k1Kst_V28-26">
          <mxGeometry relative="1" as="geometry" />
        </mxCell>
        <mxCell id="FTFGuDRBSK8k1Kst_V28-29" value="" style="edgeStyle=orthogonalEdgeStyle;rounded=0;orthogonalLoop=1;jettySize=auto;html=1;" edge="1" parent="1" source="FTFGuDRBSK8k1Kst_V28-24" target="FTFGuDRBSK8k1Kst_V28-28">
          <mxGeometry relative="1" as="geometry" />
        </mxCell>
        <mxCell id="FTFGuDRBSK8k1Kst_V28-24" value="Address" style="ellipse;whiteSpace=wrap;html=1;" vertex="1" parent="1">
          <mxGeometry x="230" y="130" width="90" height="50" as="geometry" />
        </mxCell>
        <mxCell id="FTFGuDRBSK8k1Kst_V28-26" value="CountryCode" style="ellipse;whiteSpace=wrap;html=1;" vertex="1" parent="1">
          <mxGeometry x="390" y="150" width="90" height="50" as="geometry" />
        </mxCell>
        <mxCell id="FTFGuDRBSK8k1Kst_V28-28" value="&lt;span style=&quot;color: rgb(51, 51, 51); font-family: &amp;quot;Noto Sans&amp;quot;, sans-serif; font-size: 16px; text-align: left;&quot;&gt;governate&lt;/span&gt;" style="ellipse;whiteSpace=wrap;html=1;" vertex="1" parent="1">
          <mxGeometry x="620" y="200" width="100" height="50" as="geometry" />
        </mxCell>
        <mxCell id="FTFGuDRBSK8k1Kst_V28-40" style="edgeStyle=orthogonalEdgeStyle;rounded=0;orthogonalLoop=1;jettySize=auto;html=1;" edge="1" parent="1" source="FTFGuDRBSK8k1Kst_V28-30" target="FTFGuDRBSK8k1Kst_V28-24">
          <mxGeometry relative="1" as="geometry" />
        </mxCell>
        <mxCell id="FTFGuDRBSK8k1Kst_V28-30" value="&lt;span style=&quot;color: rgb(51, 51, 51); font-family: &amp;quot;Noto Sans&amp;quot;, sans-serif; font-size: 16px; text-align: left;&quot;&gt;regionCity&lt;/span&gt;" style="ellipse;whiteSpace=wrap;html=1;align=center;" vertex="1" parent="1">
          <mxGeometry x="500" y="90" width="85" height="40" as="geometry" />
        </mxCell>
        <mxCell id="FTFGuDRBSK8k1Kst_V28-39" style="edgeStyle=orthogonalEdgeStyle;rounded=0;orthogonalLoop=1;jettySize=auto;html=1;" edge="1" parent="1" source="FTFGuDRBSK8k1Kst_V28-31" target="FTFGuDRBSK8k1Kst_V28-24">
          <mxGeometry relative="1" as="geometry" />
        </mxCell>
        <mxCell id="FTFGuDRBSK8k1Kst_V28-31" value="&lt;span style=&quot;border-bottom: 1px dotted&quot;&gt;Street&lt;/span&gt;" style="ellipse;whiteSpace=wrap;html=1;align=center;" vertex="1" parent="1">
          <mxGeometry x="540" y="270" width="100" height="40" as="geometry" />
        </mxCell>
        <mxCell id="FTFGuDRBSK8k1Kst_V28-41" style="edgeStyle=orthogonalEdgeStyle;rounded=0;orthogonalLoop=1;jettySize=auto;html=1;entryX=0.711;entryY=0.964;entryDx=0;entryDy=0;entryPerimeter=0;" edge="1" parent="1" source="FTFGuDRBSK8k1Kst_V28-32" target="FTFGuDRBSK8k1Kst_V28-24">
          <mxGeometry relative="1" as="geometry" />
        </mxCell>
        <mxCell id="FTFGuDRBSK8k1Kst_V28-32" value="&lt;span style=&quot;border-bottom: 1px dotted&quot;&gt;building number&lt;/span&gt;" style="ellipse;whiteSpace=wrap;html=1;align=center;" vertex="1" parent="1">
          <mxGeometry x="470" y="310" width="100" height="40" as="geometry" />
        </mxCell>
        <mxCell id="FTFGuDRBSK8k1Kst_V28-37" value="" style="edgeStyle=orthogonalEdgeStyle;rounded=0;orthogonalLoop=1;jettySize=auto;html=1;" edge="1" parent="1" source="FTFGuDRBSK8k1Kst_V28-33" target="FTFGuDRBSK8k1Kst_V28-24">
          <mxGeometry relative="1" as="geometry" />
        </mxCell>
        <mxCell id="FTFGuDRBSK8k1Kst_V28-33" value="&lt;span style=&quot;border-bottom: 1px dotted&quot;&gt;Postal Code&lt;/span&gt;" style="ellipse;whiteSpace=wrap;html=1;align=center;" vertex="1" parent="1">
          <mxGeometry x="385" y="260" width="100" height="40" as="geometry" />
        </mxCell>
        <mxCell id="FTFGuDRBSK8k1Kst_V28-38" value="" style="edgeStyle=orthogonalEdgeStyle;rounded=0;orthogonalLoop=1;jettySize=auto;html=1;" edge="1" parent="1" source="FTFGuDRBSK8k1Kst_V28-34" target="FTFGuDRBSK8k1Kst_V28-24">
          <mxGeometry relative="1" as="geometry" />
        </mxCell>
        <mxCell id="FTFGuDRBSK8k1Kst_V28-34" value="&lt;span style=&quot;border-bottom: 1px dotted&quot;&gt;floor&lt;/span&gt;" style="ellipse;whiteSpace=wrap;html=1;align=center;" vertex="1" parent="1">
          <mxGeometry x="420" y="200" width="100" height="40" as="geometry" />
        </mxCell>
        <mxCell id="FTFGuDRBSK8k1Kst_V28-42" style="edgeStyle=orthogonalEdgeStyle;rounded=0;orthogonalLoop=1;jettySize=auto;html=1;" edge="1" parent="1" source="FTFGuDRBSK8k1Kst_V28-35" target="FTFGuDRBSK8k1Kst_V28-24">
          <mxGeometry relative="1" as="geometry" />
        </mxCell>
        <mxCell id="FTFGuDRBSK8k1Kst_V28-35" value="&lt;span style=&quot;border-bottom: 1px dotted&quot;&gt;room&lt;/span&gt;" style="ellipse;whiteSpace=wrap;html=1;align=center;strokeColor=default;" vertex="1" parent="1">
          <mxGeometry x="525" y="180" width="100" height="40" as="geometry" />
        </mxCell>
        <mxCell id="FTFGuDRBSK8k1Kst_V28-43" style="edgeStyle=orthogonalEdgeStyle;rounded=0;orthogonalLoop=1;jettySize=auto;html=1;" edge="1" parent="1" source="FTFGuDRBSK8k1Kst_V28-36" target="FTFGuDRBSK8k1Kst_V28-24">
          <mxGeometry relative="1" as="geometry" />
        </mxCell>
        <mxCell id="FTFGuDRBSK8k1Kst_V28-36" value="&lt;span style=&quot;border-bottom: 1px dotted&quot;&gt;landmark&lt;/span&gt;" style="ellipse;whiteSpace=wrap;html=1;align=center;" vertex="1" parent="1">
          <mxGeometry x="650" y="330" width="100" height="40" as="geometry" />
        </mxCell>
        <mxCell id="FTFGuDRBSK8k1Kst_V28-44" value="&lt;b&gt;ID&lt;/b&gt;" style="ellipse;whiteSpace=wrap;html=1;" vertex="1" parent="1">
          <mxGeometry x="10" y="730" width="80" height="40" as="geometry" />
        </mxCell>
        <mxCell id="FTFGuDRBSK8k1Kst_V28-47" value="&lt;span style=&quot;border-bottom: 1px dotted&quot;&gt;Name&lt;/span&gt;" style="ellipse;whiteSpace=wrap;html=1;align=center;strokeColor=default;" vertex="1" parent="1">
          <mxGeometry x="100" y="730" width="100" height="40" as="geometry" />
        </mxCell>
        <mxCell id="FTFGuDRBSK8k1Kst_V28-52" style="edgeStyle=orthogonalEdgeStyle;rounded=0;orthogonalLoop=1;jettySize=auto;html=1;entryX=0.75;entryY=0;entryDx=0;entryDy=0;" edge="1" parent="1" source="FTFGuDRBSK8k1Kst_V28-48" target="FTFGuDRBSK8k1Kst_V28-23">
          <mxGeometry relative="1" as="geometry" />
        </mxCell>
        <mxCell id="FTFGuDRBSK8k1Kst_V28-48" value="&lt;span style=&quot;border-bottom: 1px dotted&quot;&gt;userName&lt;/span&gt;" style="ellipse;whiteSpace=wrap;html=1;align=center;strokeColor=default;" vertex="1" parent="1">
          <mxGeometry x="170" y="780" width="100" height="40" as="geometry" />
        </mxCell>
        <mxCell id="FTFGuDRBSK8k1Kst_V28-49" value="&lt;span style=&quot;border-bottom: 1px dotted&quot;&gt;Password&lt;/span&gt;" style="ellipse;whiteSpace=wrap;html=1;align=center;strokeColor=default;" vertex="1" parent="1">
          <mxGeometry x="170" y="830" width="100" height="40" as="geometry" />
        </mxCell>
        <mxCell id="FTFGuDRBSK8k1Kst_V28-50" value="&lt;span style=&quot;border-bottom: 1px dotted&quot;&gt;Email&lt;/span&gt;" style="ellipse;whiteSpace=wrap;html=1;align=center;strokeColor=default;" vertex="1" parent="1">
          <mxGeometry x="170" y="880" width="100" height="40" as="geometry" />
        </mxCell>
        <mxCell id="FTFGuDRBSK8k1Kst_V28-58" style="edgeStyle=orthogonalEdgeStyle;rounded=0;orthogonalLoop=1;jettySize=auto;html=1;entryX=0.5;entryY=1;entryDx=0;entryDy=0;" edge="1" parent="1" source="FTFGuDRBSK8k1Kst_V28-55" target="FTFGuDRBSK8k1Kst_V28-56">
          <mxGeometry relative="1" as="geometry" />
        </mxCell>
        <mxCell id="FTFGuDRBSK8k1Kst_V28-59" style="edgeStyle=orthogonalEdgeStyle;rounded=0;orthogonalLoop=1;jettySize=auto;html=1;entryX=0.5;entryY=1;entryDx=0;entryDy=0;" edge="1" parent="1" source="FTFGuDRBSK8k1Kst_V28-55" target="FTFGuDRBSK8k1Kst_V28-57">
          <mxGeometry relative="1" as="geometry" />
        </mxCell>
        <mxCell id="FTFGuDRBSK8k1Kst_V28-55" value="Supplier" style="whiteSpace=wrap;html=1;align=center;strokeColor=default;" vertex="1" parent="1">
          <mxGeometry x="680" y="550" width="100" height="40" as="geometry" />
        </mxCell>
        <mxCell id="FTFGuDRBSK8k1Kst_V28-56" value="&lt;span style=&quot;border-bottom: 1px dotted&quot;&gt;ID&lt;/span&gt;" style="ellipse;whiteSpace=wrap;html=1;align=center;strokeColor=default;" vertex="1" parent="1">
          <mxGeometry x="550" y="510" width="100" height="40" as="geometry" />
        </mxCell>
        <mxCell id="FTFGuDRBSK8k1Kst_V28-57" value="&lt;span style=&quot;border-bottom: 1px dotted&quot;&gt;Name&lt;/span&gt;" style="ellipse;whiteSpace=wrap;html=1;align=center;strokeColor=default;" vertex="1" parent="1">
          <mxGeometry x="640" y="460" width="100" height="40" as="geometry" />
        </mxCell>
        <mxCell id="FTFGuDRBSK8k1Kst_V28-63" style="edgeStyle=orthogonalEdgeStyle;rounded=0;orthogonalLoop=1;jettySize=auto;html=1;entryX=0.5;entryY=1;entryDx=0;entryDy=0;" edge="1" parent="1" source="FTFGuDRBSK8k1Kst_V28-60" target="FTFGuDRBSK8k1Kst_V28-62">
          <mxGeometry relative="1" as="geometry" />
        </mxCell>
        <mxCell id="FTFGuDRBSK8k1Kst_V28-64" style="edgeStyle=orthogonalEdgeStyle;rounded=0;orthogonalLoop=1;jettySize=auto;html=1;entryX=0.58;entryY=1.075;entryDx=0;entryDy=0;entryPerimeter=0;" edge="1" parent="1" source="FTFGuDRBSK8k1Kst_V28-60" target="FTFGuDRBSK8k1Kst_V28-61">
          <mxGeometry relative="1" as="geometry" />
        </mxCell>
        <mxCell id="FTFGuDRBSK8k1Kst_V28-60" value="Store" style="whiteSpace=wrap;html=1;align=center;strokeColor=default;" vertex="1" parent="1">
          <mxGeometry x="670" y="720" width="100" height="40" as="geometry" />
        </mxCell>
        <mxCell id="FTFGuDRBSK8k1Kst_V28-61" value="&lt;span style=&quot;border-bottom: 1px dotted&quot;&gt;Name&lt;/span&gt;" style="ellipse;whiteSpace=wrap;html=1;align=center;strokeColor=default;" vertex="1" parent="1">
          <mxGeometry x="660" y="640" width="100" height="40" as="geometry" />
        </mxCell>
        <mxCell id="FTFGuDRBSK8k1Kst_V28-62" value="&lt;span style=&quot;border-bottom: 1px dotted&quot;&gt;ID&lt;/span&gt;" style="ellipse;whiteSpace=wrap;html=1;align=center;strokeColor=default;" vertex="1" parent="1">
          <mxGeometry x="750" y="670" width="100" height="40" as="geometry" />
        </mxCell>
        <mxCell id="FTFGuDRBSK8k1Kst_V28-69" style="edgeStyle=orthogonalEdgeStyle;rounded=0;orthogonalLoop=1;jettySize=auto;html=1;entryX=0.5;entryY=1;entryDx=0;entryDy=0;" edge="1" parent="1" source="FTFGuDRBSK8k1Kst_V28-65" target="FTFGuDRBSK8k1Kst_V28-66">
          <mxGeometry relative="1" as="geometry" />
        </mxCell>
        <mxCell id="FTFGuDRBSK8k1Kst_V28-70" style="edgeStyle=orthogonalEdgeStyle;rounded=0;orthogonalLoop=1;jettySize=auto;html=1;entryX=0.5;entryY=1;entryDx=0;entryDy=0;" edge="1" parent="1" source="FTFGuDRBSK8k1Kst_V28-65" target="FTFGuDRBSK8k1Kst_V28-67">
          <mxGeometry relative="1" as="geometry" />
        </mxCell>
        <mxCell id="FTFGuDRBSK8k1Kst_V28-71" style="edgeStyle=orthogonalEdgeStyle;rounded=0;orthogonalLoop=1;jettySize=auto;html=1;entryX=0.5;entryY=1;entryDx=0;entryDy=0;" edge="1" parent="1" source="FTFGuDRBSK8k1Kst_V28-65" target="FTFGuDRBSK8k1Kst_V28-68">
          <mxGeometry relative="1" as="geometry" />
        </mxCell>
        <mxCell id="FTFGuDRBSK8k1Kst_V28-65" value="Product" style="whiteSpace=wrap;html=1;align=center;strokeColor=default;" vertex="1" parent="1">
          <mxGeometry x="560" y="890" width="100" height="40" as="geometry" />
        </mxCell>
        <mxCell id="FTFGuDRBSK8k1Kst_V28-66" value="&lt;span style=&quot;border-bottom: 1px dotted&quot;&gt;ID&lt;/span&gt;" style="ellipse;whiteSpace=wrap;html=1;align=center;strokeColor=default;" vertex="1" parent="1">
          <mxGeometry x="460" y="830" width="100" height="40" as="geometry" />
        </mxCell>
        <mxCell id="FTFGuDRBSK8k1Kst_V28-67" value="&lt;span style=&quot;border-bottom: 1px dotted&quot;&gt;Name&lt;/span&gt;" style="ellipse;whiteSpace=wrap;html=1;align=center;strokeColor=default;" vertex="1" parent="1">
          <mxGeometry x="580" y="820" width="100" height="40" as="geometry" />
        </mxCell>
        <mxCell id="FTFGuDRBSK8k1Kst_V28-68" value="&lt;span style=&quot;border-bottom: 1px dotted&quot;&gt;Price&lt;/span&gt;" style="ellipse;whiteSpace=wrap;html=1;align=center;strokeColor=default;" vertex="1" parent="1">
          <mxGeometry x="700" y="830" width="100" height="40" as="geometry" />
        </mxCell>
        <mxCell id="FTFGuDRBSK8k1Kst_V28-73" style="edgeStyle=orthogonalEdgeStyle;rounded=0;orthogonalLoop=1;jettySize=auto;html=1;entryX=0.5;entryY=1;entryDx=0;entryDy=0;" edge="1" parent="1" source="FTFGuDRBSK8k1Kst_V28-72" target="FTFGuDRBSK8k1Kst_V28-65">
          <mxGeometry relative="1" as="geometry" />
        </mxCell>
        <mxCell id="FTFGuDRBSK8k1Kst_V28-72" value="&lt;span style=&quot;border-bottom: 1px dotted&quot;&gt;Code Type&lt;/span&gt;" style="ellipse;whiteSpace=wrap;html=1;align=center;strokeColor=default;" vertex="1" parent="1">
          <mxGeometry x="670" y="940" width="100" height="40" as="geometry" />
        </mxCell>
        <mxCell id="FTFGuDRBSK8k1Kst_V28-75" style="edgeStyle=orthogonalEdgeStyle;rounded=0;orthogonalLoop=1;jettySize=auto;html=1;entryX=0.25;entryY=1;entryDx=0;entryDy=0;" edge="1" parent="1" source="FTFGuDRBSK8k1Kst_V28-74" target="FTFGuDRBSK8k1Kst_V28-65">
          <mxGeometry relative="1" as="geometry" />
        </mxCell>
        <mxCell id="FTFGuDRBSK8k1Kst_V28-74" value="&lt;span style=&quot;border-bottom: 1px dotted&quot;&gt;Code&lt;/span&gt;" style="ellipse;whiteSpace=wrap;html=1;align=center;strokeColor=default;" vertex="1" parent="1">
          <mxGeometry x="640" y="990" width="100" height="40" as="geometry" />
        </mxCell>
        <mxCell id="FTFGuDRBSK8k1Kst_V28-76" value="Order" style="whiteSpace=wrap;html=1;align=center;strokeColor=default;" vertex="1" parent="1">
          <mxGeometry x="20" y="440" width="100" height="40" as="geometry" />
        </mxCell>
        <mxCell id="FTFGuDRBSK8k1Kst_V28-77" value="Order Details" style="whiteSpace=wrap;html=1;align=center;strokeColor=default;" vertex="1" parent="1">
          <mxGeometry x="260" y="440" width="100" height="40" as="geometry" />
        </mxCell>
        <mxCell id="FTFGuDRBSK8k1Kst_V28-79" value="Purchase" style="whiteSpace=wrap;html=1;align=center;strokeColor=default;" vertex="1" parent="1">
          <mxGeometry x="20" y="560" width="100" height="40" as="geometry" />
        </mxCell>
        <mxCell id="FTFGuDRBSK8k1Kst_V28-80" value="Purchase Details" style="whiteSpace=wrap;html=1;align=center;strokeColor=default;" vertex="1" parent="1">
          <mxGeometry x="260" y="560" width="100" height="40" as="geometry" />
        </mxCell>
      </root>
    </mxGraphModel>
  </diagram>
</mxfile>
